<svg width="27" height="34" viewBox="0 0 27 34" fill="none" xmlns="http://www.w3.org/2000/svg">
<path d="M13.3983 17L23.634 23.9953C24.9764 24.9128 25.7792 26.4338 25.7792 28.0598V28.0598C25.7792 30.7786 23.5752 32.9827 20.8563 32.9827H5.94025C3.22139 32.9827 1.01732 30.7786 1.01732 28.0598V28.0598C1.01732 26.4338 1.82014 24.9128 3.16253 23.9953L13.3983 17ZM13.3983 17L23.634 10.0047C24.9764 9.08725 25.7792 7.56618 25.7792 5.94025V5.94025C25.7792 3.22139 23.5752 1.01732 20.8563 1.01732H5.94024C3.22138 1.01732 1.01732 3.22139 1.01732 5.94025V5.94025C1.01732 7.56618 1.82014 9.08725 3.16253 10.0047L13.3983 17Z" stroke="#E3E3E3" stroke-width="2" stroke-linecap="round" stroke-linejoin="round"/>
<path d="M17.1815 26.4191L19.0423 27.6196C19.8741 28.1563 20.3767 29.0785 20.3767 30.0685C20.3767 31.6779 19.0719 32.9827 17.4624 32.9827H9.33417C7.72469 32.9827 6.41995 31.6779 6.41995 30.0685C6.41995 29.0785 6.92246 28.1563 7.75429 27.6196L9.61515 26.4191C11.9184 24.9331 14.8782 24.9331 17.1815 26.4191Z" fill="#E3E3E3"/>
</svg>
