<svg width="25" height="24" viewBox="0 0 25 24" fill="none" xmlns="http://www.w3.org/2000/svg">
<path d="M14.2345 3.36527H14.7345V3.34016L14.732 3.31518L14.2345 3.36527ZM14.0794 2.53762L13.636 2.76881L13.636 2.76881L14.0794 2.53762ZM14.2345 3.36528H13.7345V3.39039L13.737 3.41537L14.2345 3.36528ZM14.5339 4.83074L14.138 5.13618L14.5339 4.83074ZM15.4509 5.212L15.3882 4.71594L15.4509 5.212ZM16.71 4.38352L17.0253 4.77157L16.71 4.38352ZM17.4198 3.90134L17.2735 3.42321V3.42321L17.4198 3.90134ZM18.0984 3.93516L18.2915 3.47394L18.2915 3.47394L18.0984 3.93516ZM18.7527 4.48154L18.4003 4.83637L18.4068 4.84254L18.7527 4.48154ZM18.7527 4.48156L19.1051 4.12673L19.0987 4.12057L18.7527 4.48156ZM19.6524 5.37504L20.0047 5.02027V5.02027L19.6524 5.37504ZM20.1917 6.00863L20.6495 5.80765V5.80765L20.1917 6.00863ZM20.2271 6.71938L19.7516 6.56498V6.56499L20.2271 6.71938ZM19.7536 7.40351L20.1396 7.72144L19.7536 7.40351ZM18.9306 8.63335L19.4256 8.70339V8.70339L18.9306 8.63335ZM19.3175 9.571L19.0158 9.96978V9.96978L19.3175 9.571ZM20.7799 9.86368L20.8293 9.36613H20.8293L20.7799 9.86368ZM21.6137 10.0183L21.3831 10.462L21.3831 10.462L21.6137 10.0183ZM22.081 10.5343L21.6167 10.72H21.6167L22.081 10.5343ZM22.081 13.4656L22.5453 13.6512L22.5453 13.6512L22.081 13.4656ZM21.6136 13.9817L21.8442 14.4254L21.8442 14.4254L21.6136 13.9817ZM20.78 14.1363L20.8294 14.6339L20.78 14.1363ZM19.318 14.4288L19.0165 14.03L19.318 14.4288ZM18.931 15.3668L19.426 15.2967V15.2967L18.931 15.3668ZM19.7538 16.5962L19.3679 16.9141V16.9141L19.7538 16.5962ZM20.2271 17.28L20.7027 17.1256V17.1256L20.2271 17.28ZM20.1917 17.9911L20.6495 18.1921L20.1917 17.9911ZM19.6526 18.6244L19.3003 18.2696L19.299 18.2708L19.6526 18.6244ZM19.6526 18.6244L20.0049 18.9792L20.0061 18.978L19.6526 18.6244ZM18.7528 19.518L18.4005 19.1632V19.1632L18.7528 19.518ZM18.0984 20.0644L17.9054 19.6032L18.0984 20.0644ZM17.4198 20.0982L17.2736 20.5763L17.2736 20.5764L17.4198 20.0982ZM16.7101 19.6161L17.0254 19.228L16.7101 19.6161ZM15.4507 18.7875L15.3882 19.2836L15.3882 19.2836L15.4507 18.7875ZM14.5341 19.1687L14.1382 18.8632L14.1382 18.8632L14.5341 19.1687ZM14.2345 20.6346L14.732 20.6847L14.2345 20.6346ZM14.0793 21.4625L13.636 21.2312L14.0793 21.4625ZM13.564 21.9285L13.7497 22.3928L13.7497 22.3928L13.564 21.9285ZM10.6025 21.9285L10.4169 22.3928H10.4169L10.6025 21.9285ZM10.087 21.4624L9.64369 21.6936L9.64369 21.6936L10.087 21.4624ZM9.93187 20.6347L9.43438 20.6848L9.93187 20.6347ZM9.63247 19.1692L9.23661 19.4746L9.23662 19.4746L9.63247 19.1692ZM8.71556 18.7879L8.65296 18.2919L8.65296 18.2919L8.71556 18.7879ZM7.45637 19.6165L7.14106 19.2284L7.14106 19.2284L7.45637 19.6165ZM6.74651 20.0987L6.89274 20.5768H6.89274L6.74651 20.0987ZM6.06794 20.0649L6.26099 19.6036L6.26099 19.6036L6.06794 20.0649ZM5.41355 19.5184L5.06122 19.8732L5.06122 19.8732L5.41355 19.5184ZM4.51391 18.625L4.86625 18.2702L4.86624 18.2702L4.51391 18.625ZM3.97465 17.9914L3.51682 18.1924H3.51682L3.97465 17.9914ZM3.93917 17.2806L4.41474 17.435L4.41474 17.435L3.93917 17.2806ZM4.41267 16.5965L4.03638 16.2672L4.03149 16.2728L4.02677 16.2786L4.41267 16.5965ZM4.41267 16.5965L4.78896 16.9257L4.79385 16.9202L4.79858 16.9144L4.41267 16.5965ZM5.23578 15.3666L4.74071 15.2966V15.2966L5.23578 15.3666ZM4.84888 14.429L5.1505 14.0302L4.84888 14.429ZM3.3865 14.1363L3.30593 14.6298L3.32145 14.6323L3.33709 14.6339L3.3865 14.1363ZM3.38648 14.1363L3.46705 13.6428L3.45153 13.6403L3.43589 13.6388L3.38648 14.1363ZM2.55269 13.9817L2.78331 13.538H2.78331L2.55269 13.9817ZM2.08539 13.4657L2.54966 13.28L2.54966 13.28L2.08539 13.4657ZM2.08543 10.5342L2.54967 10.7199L2.54967 10.7199L2.08543 10.5342ZM2.5526 10.0184L2.78326 10.462L2.78326 10.462L2.5526 10.0184ZM3.38659 9.86368L3.436 10.3612H3.436L3.38659 9.86368ZM4.84942 9.57084L4.54772 9.17212L4.84942 9.57084ZM5.23619 8.63353L5.73127 8.56359V8.56359L5.23619 8.63353ZM4.41283 7.4032L4.02692 7.72113L4.41283 7.4032ZM3.93918 6.71879L4.41476 6.56446L3.93918 6.71879ZM3.97464 6.00831L3.51678 5.80739V5.80739L3.97464 6.00831ZM4.51408 5.37446L4.16175 5.01969L4.51408 5.37446ZM5.4136 4.48113L5.76593 4.8359L5.76593 4.8359L5.4136 4.48113ZM6.06799 3.9347L6.26104 4.39593H6.26104L6.06799 3.9347ZM6.74655 3.90088L6.60032 4.37902H6.60032L6.74655 3.90088ZM7.45649 4.38316L7.14118 4.77121L7.14872 4.77733L7.15649 4.78316L7.45649 4.38316ZM7.4565 4.38316L7.7718 3.99512L7.76427 3.98899L7.7565 3.98316L7.4565 4.38316ZM8.71543 5.21159L8.65275 5.70765H8.65275L8.71543 5.21159ZM9.63263 4.83023L9.23671 4.52485L9.63263 4.83023ZM9.93188 3.36514L10.4294 3.41524V3.41524L9.93188 3.36514ZM10.087 2.53772L10.5303 2.76886V2.76886L10.087 2.53772ZM10.6026 2.07141L10.417 1.60712V1.60712L10.6026 2.07141ZM13.5639 2.07145L13.3783 2.53573V2.53573L13.5639 2.07145ZM14.732 3.31518C14.7106 3.10286 14.6924 2.91905 14.6668 2.76774C14.6403 2.61145 14.6012 2.45685 14.5227 2.30644L13.636 2.76881C13.6466 2.78907 13.663 2.82931 13.6808 2.93467C13.6995 3.04503 13.7143 3.1897 13.737 3.41537L14.732 3.31518ZM14.7345 3.36528V3.36527H13.7345V3.36528H14.7345ZM14.9298 4.52531C14.9182 4.51025 14.881 4.44894 14.8419 4.23364C14.8037 4.023 14.7745 3.73672 14.732 3.31519L13.737 3.41537C13.7778 3.81995 13.811 4.15325 13.858 4.41224C13.9041 4.66657 13.9751 4.92494 14.138 5.13618L14.9298 4.52531ZM15.3882 4.71594C15.2124 4.73813 15.038 4.6656 14.9298 4.52531L14.138 5.13618C14.4628 5.55706 14.986 5.77463 15.5135 5.70807L15.3882 4.71594ZM16.3947 3.99548C16.0629 4.26505 15.837 4.44817 15.659 4.57092C15.4767 4.69668 15.4065 4.71363 15.3882 4.71594L15.5135 5.70807C15.7787 5.67459 16.013 5.54153 16.2268 5.39411C16.4449 5.24368 16.7067 5.03046 17.0253 4.77157L16.3947 3.99548ZM17.2735 3.42321C17.1088 3.47361 16.9691 3.55613 16.8374 3.64903C16.7098 3.73908 16.5638 3.85805 16.3947 3.99548L17.0253 4.77157C17.2049 4.6256 17.3205 4.53203 17.4139 4.46611C17.5033 4.40304 17.5442 4.38617 17.566 4.37948L17.2735 3.42321ZM18.2915 3.47394C17.9685 3.33874 17.6084 3.3208 17.2735 3.42321L17.566 4.37948C17.6776 4.34534 17.7977 4.35132 17.9053 4.39639L18.2915 3.47394ZM19.1051 4.12677C18.9518 3.97457 18.8193 3.84257 18.7018 3.74085C18.5804 3.63574 18.45 3.54032 18.2915 3.47394L17.9053 4.39639C17.9268 4.40537 17.9655 4.42614 18.0472 4.49687C18.1329 4.571 18.2375 4.67451 18.4004 4.83631L19.1051 4.12677ZM19.0987 4.12057L19.0987 4.12055L18.4068 4.84254L18.4068 4.84255L19.0987 4.12057ZM20.0047 5.02027L19.1051 4.12679L18.4004 4.83633L19.3001 5.72981L20.0047 5.02027ZM20.6495 5.80765C20.5822 5.65437 20.4877 5.52836 20.3842 5.41097C20.284 5.29726 20.1544 5.16886 20.0047 5.02027L19.3001 5.72981C19.4591 5.88773 19.5609 5.98921 19.6341 6.07222C19.704 6.15154 19.7248 6.18907 19.7338 6.20961L20.6495 5.80765ZM20.7027 6.87378C20.8163 6.5239 20.7974 6.14448 20.6495 5.80765L19.7338 6.20961C19.7831 6.32188 19.7894 6.44836 19.7516 6.56498L20.7027 6.87378ZM20.1396 7.72144C20.2736 7.55868 20.3899 7.41801 20.4783 7.29489C20.5695 7.16778 20.651 7.03299 20.7027 6.87378L19.7516 6.56499C19.7447 6.58632 19.7277 6.62574 19.666 6.71162C19.6015 6.8015 19.5102 6.91262 19.3677 7.08559L20.1396 7.72144ZM19.4256 8.70339C19.4282 8.68521 19.4458 8.61646 19.5704 8.43876C19.6921 8.26514 19.873 8.04498 20.1396 7.72144L19.3677 7.08559C19.1118 7.39621 18.9009 7.65166 18.7515 7.86477C18.605 8.0738 18.4723 8.30289 18.4355 8.56331L19.4256 8.70339ZM19.6191 9.17222C19.4742 9.06267 19.4002 8.8832 19.4256 8.70339L18.4355 8.56331C18.3592 9.10274 18.5813 9.64114 19.0158 9.96978L19.6191 9.17222ZM20.8293 9.36613C20.4083 9.32433 20.1217 9.2955 19.9109 9.25799C19.6946 9.2195 19.6333 9.18295 19.6191 9.17222L19.0158 9.96978C19.2261 10.1288 19.4833 10.1976 19.7357 10.2425C19.9937 10.2884 20.3261 10.3211 20.7304 10.3612L20.8293 9.36613ZM21.8443 9.57469C21.6934 9.49625 21.538 9.4573 21.3811 9.43103C21.2288 9.40555 21.0436 9.38742 20.8293 9.36613L20.7304 10.3612C20.9581 10.3838 21.1044 10.3986 21.2159 10.4173C21.3227 10.4352 21.3632 10.4516 21.3831 10.462L21.8443 9.57469ZM22.5453 10.3487C22.4119 10.0151 22.1631 9.74041 21.8443 9.57469L21.3831 10.462C21.4894 10.5172 21.5723 10.6088 21.6167 10.72L22.5453 10.3487ZM22.6525 11.3737C22.6525 11.1602 22.6527 10.9754 22.6424 10.8222C22.6317 10.664 22.6083 10.5062 22.5453 10.3487L21.6167 10.72C21.6252 10.7412 21.6375 10.7829 21.6447 10.8896C21.6522 11.0013 21.6525 11.1468 21.6525 11.3737H22.6525ZM22.6525 12.6264V11.3737H21.6525V12.6264H22.6525ZM22.5453 13.6512C22.6083 13.4937 22.6318 13.3359 22.6424 13.1777C22.6527 13.0246 22.6525 12.8398 22.6525 12.6264H21.6525C21.6525 12.8533 21.6522 12.9987 21.6447 13.1104C21.6375 13.2171 21.6252 13.2588 21.6168 13.28L22.5453 13.6512ZM21.8442 14.4254C22.1631 14.2596 22.4119 13.9849 22.5453 13.6512L21.6168 13.28C21.5723 13.3912 21.4894 13.4828 21.3831 13.5381L21.8442 14.4254ZM20.8294 14.6339C21.0437 14.6126 21.2289 14.5944 21.381 14.569C21.5379 14.5427 21.6933 14.5038 21.8442 14.4254L21.3831 13.5381C21.3631 13.5484 21.3227 13.5648 21.2159 13.5827C21.1044 13.6014 20.9581 13.6162 20.7305 13.6388L20.8294 14.6339ZM19.6195 14.8277C19.6337 14.817 19.6951 14.7804 19.9113 14.742C20.1221 14.7045 20.4086 14.6757 20.8294 14.6339L20.7305 13.6388C20.3263 13.6789 19.994 13.7115 19.7361 13.7574C19.4838 13.8023 19.2266 13.8711 19.0165 14.03L19.6195 14.8277ZM19.426 15.2967C19.4005 15.1168 19.4746 14.9372 19.6195 14.8277L19.0165 14.03C18.5817 14.3587 18.3594 14.8973 18.4359 15.437L19.426 15.2967ZM20.1397 16.2782C19.8733 15.9548 19.6924 15.7347 19.5708 15.5612C19.4462 15.3836 19.4286 15.3148 19.426 15.2967L18.4359 15.437C18.4728 15.6973 18.6054 15.9263 18.7519 16.1352C18.9012 16.3482 19.1121 16.6036 19.3679 16.9141L20.1397 16.2782ZM20.7027 17.1256C20.651 16.9664 20.5695 16.8317 20.4783 16.7046C20.3899 16.5816 20.2737 16.4409 20.1397 16.2782L19.3679 16.9141C19.5103 17.087 19.6015 17.1981 19.666 17.2879C19.7277 17.3738 19.7447 17.4132 19.7516 17.4345L20.7027 17.1256ZM20.6495 18.1921C20.7974 17.8552 20.8164 17.4756 20.7027 17.1256L19.7516 17.4345C19.7895 17.5512 19.7832 17.6777 19.7339 17.79L20.6495 18.1921ZM20.0049 18.9792C20.1545 18.8306 20.2841 18.7023 20.3843 18.5886C20.4877 18.4713 20.5822 18.3453 20.6495 18.1921L19.7339 17.79C19.7248 17.8105 19.704 17.8481 19.6341 17.9273C19.561 18.0103 19.4592 18.1118 19.3003 18.2696L20.0049 18.9792ZM20.0061 18.978L20.0061 18.9779L19.299 18.2708L19.299 18.2708L20.0061 18.978ZM19.1051 19.8728L20.0049 18.9792L19.3002 18.2696L18.4005 19.1632L19.1051 19.8728ZM18.2915 20.5256C18.4501 20.4592 18.5804 20.3638 18.7018 20.2587C18.8193 20.157 18.9519 20.025 19.1051 19.8728L18.4005 19.1632C18.2375 19.325 18.1329 19.4285 18.0473 19.5027C17.9656 19.5734 17.9268 19.5942 17.9054 19.6032L18.2915 20.5256ZM17.2736 20.5764C17.6084 20.6788 17.9685 20.6608 18.2915 20.5256L17.9054 19.6032C17.7977 19.6482 17.6777 19.6542 17.5661 19.6201L17.2736 20.5764ZM16.3948 20.0041C16.5639 20.1415 16.7099 20.2605 16.8375 20.3505C16.9691 20.4434 17.1088 20.526 17.2736 20.5763L17.5661 19.6201C17.5442 19.6134 17.5034 19.5965 17.414 19.5335C17.3206 19.4676 17.205 19.374 17.0254 19.228L16.3948 20.0041ZM15.3882 19.2836C15.4065 19.2859 15.4766 19.3029 15.659 19.4286C15.837 19.5514 16.063 19.7345 16.3948 20.0041L17.0254 19.228C16.7068 18.9691 16.4449 18.7559 16.2267 18.6054C16.0129 18.458 15.7786 18.3249 15.5132 18.2915L15.3882 19.2836ZM14.9299 19.4742C15.0381 19.334 15.2125 19.2615 15.3882 19.2836L15.5133 18.2915C14.986 18.225 14.4629 18.4425 14.1382 18.8632L14.9299 19.4742ZM14.732 20.6847C14.7745 20.263 14.8037 19.9766 14.842 19.7659C14.881 19.5506 14.9182 19.4892 14.9299 19.4742L14.1382 18.8632C13.9752 19.0745 13.9042 19.3329 13.858 19.5873C13.811 19.8464 13.7778 20.1798 13.7371 20.5845L14.732 20.6847ZM14.5226 21.6937C14.6011 21.5433 14.6403 21.3886 14.6668 21.2323C14.6924 21.0809 14.7106 20.8971 14.732 20.6847L13.7371 20.5845C13.7143 20.8102 13.6995 20.9549 13.6808 21.0653C13.663 21.1707 13.6466 21.211 13.636 21.2312L14.5226 21.6937ZM13.7497 22.3928C14.0826 22.2596 14.3568 22.0116 14.5226 21.6937L13.636 21.2312C13.5807 21.3372 13.4893 21.4199 13.3784 21.4643L13.7497 22.3928ZM12.7247 22.5C12.9382 22.5 13.123 22.5003 13.2761 22.4899C13.4343 22.4793 13.5921 22.4558 13.7497 22.3928L13.3784 21.4643C13.3571 21.4727 13.3155 21.485 13.2088 21.4922C13.0971 21.4997 12.9516 21.5 12.7247 21.5V22.5ZM11.4415 22.5H12.7247V21.5H11.4415V22.5ZM10.4169 22.3928C10.5744 22.4558 10.7321 22.4793 10.8903 22.4899C11.0434 22.5003 11.2281 22.5 11.4415 22.5V21.5C11.2147 21.5 11.0693 21.4997 10.9576 21.4922C10.851 21.485 10.8093 21.4728 10.7881 21.4643L10.4169 22.3928ZM9.64369 21.6936C9.80953 22.0116 10.0838 22.2597 10.4169 22.3928L10.7881 21.4643C10.6771 21.4199 10.5856 21.3372 10.5304 21.2312L9.64369 21.6936ZM9.43438 20.6848C9.45576 20.8971 9.47401 21.0809 9.49963 21.2323C9.52609 21.3886 9.56525 21.5432 9.64369 21.6936L10.5304 21.2312C10.5198 21.2109 10.5034 21.1707 10.4856 21.0653C10.4669 20.955 10.4521 20.8103 10.4294 20.5846L9.43438 20.6848ZM9.23662 19.4746C9.24823 19.4897 9.28542 19.551 9.32449 19.7663C9.36273 19.977 9.39194 20.2633 9.43438 20.6848L10.4294 20.5846C10.3886 20.18 10.3554 19.8467 10.3084 19.5877C10.2622 19.3334 10.1913 19.075 10.0283 18.8637L9.23662 19.4746ZM8.77816 19.284C8.95396 19.2618 9.12837 19.3343 9.23661 19.4746L10.0283 18.8638C9.7036 18.4429 9.18036 18.2253 8.65296 18.2919L8.77816 19.284ZM7.77168 20.0045C8.10345 19.7349 8.32942 19.5518 8.5074 19.429C8.68975 19.3033 8.75987 19.2863 8.77816 19.284L8.65296 18.2919C8.38767 18.3254 8.15339 18.4584 7.93964 18.6058C7.72153 18.7563 7.45969 18.9695 7.14106 19.2284L7.77168 20.0045ZM6.89274 20.5768C7.05753 20.5264 7.19723 20.4439 7.3289 20.351C7.45653 20.2609 7.60254 20.1419 7.77168 20.0045L7.14106 19.2284C6.9614 19.3744 6.8458 19.468 6.75237 19.5339C6.66298 19.597 6.62215 19.6138 6.60027 19.6205L6.89274 20.5768ZM5.87489 20.5261C6.19785 20.6613 6.55793 20.6792 6.89274 20.5768L6.60027 19.6205C6.48867 19.6547 6.36865 19.6487 6.26099 19.6036L5.87489 20.5261ZM5.06122 19.8732C5.2145 20.0254 5.34704 20.1574 5.46453 20.2592C5.58595 20.3643 5.71629 20.4597 5.87489 20.5261L6.26099 19.6036C6.23953 19.5946 6.20079 19.5739 6.11908 19.5031C6.03345 19.429 5.92883 19.3255 5.76588 19.1637L5.06122 19.8732ZM4.16158 18.9797L5.06122 19.8732L5.76589 19.1637L4.86625 18.2702L4.16158 18.9797ZM3.51682 18.1924C3.58411 18.3456 3.67859 18.4716 3.78207 18.589C3.8823 18.7027 4.01195 18.8311 4.16158 18.9797L4.86624 18.2702C4.70723 18.1123 4.60541 18.0108 4.53224 17.9278C4.46232 17.8485 4.44149 17.8109 4.43248 17.7904L3.51682 18.1924ZM3.46361 17.1262C3.35002 17.4761 3.36896 17.8555 3.51682 18.1924L4.43248 17.7904C4.38319 17.6781 4.37688 17.5517 4.41474 17.435L3.46361 17.1262ZM4.02677 16.2786C3.89268 16.4413 3.77645 16.582 3.68804 16.7051C3.59677 16.8322 3.5153 16.967 3.46361 17.1262L4.41474 17.435C4.42167 17.4137 4.43865 17.3743 4.50032 17.2884C4.56486 17.1985 4.65608 17.0874 4.79857 16.9144L4.02677 16.2786ZM4.03639 16.2672L4.03638 16.2672L4.78896 16.9257L4.78896 16.9257L4.03639 16.2672ZM4.74071 15.2966C4.73814 15.3148 4.72049 15.3835 4.59593 15.5612C4.47424 15.7349 4.29332 15.955 4.02677 16.2786L4.79858 16.9144C5.05449 16.6038 5.26541 16.3483 5.4148 16.1352C5.56132 15.9262 5.694 15.6971 5.73085 15.4367L4.74071 15.2966ZM4.54726 14.8278C4.69209 14.9373 4.76615 15.1168 4.74071 15.2966L5.73085 15.4367C5.80716 14.8973 5.58501 14.3589 5.1505 14.0302L4.54726 14.8278ZM3.33709 14.6339C3.75802 14.6757 4.0446 14.7045 4.25543 14.742C4.47172 14.7805 4.53307 14.817 4.54726 14.8278L5.1505 14.0302C4.94027 13.8712 4.68309 13.8024 4.43063 13.7575C4.17269 13.7116 3.84029 13.6789 3.43591 13.6388L3.33709 14.6339ZM3.30592 14.6298L3.30593 14.6298L3.46706 13.6428L3.46705 13.6428L3.30592 14.6298ZM2.32208 14.4253C2.47298 14.5038 2.62843 14.5427 2.78534 14.569C2.93753 14.5944 3.12273 14.6126 3.33707 14.6339L3.43589 13.6388C3.20826 13.6162 3.06196 13.6014 2.95046 13.5827C2.84368 13.5648 2.80323 13.5484 2.78331 13.538L2.32208 14.4253ZM1.62113 13.6513C1.75454 13.9849 2.00327 14.2596 2.32208 14.4253L2.78331 13.538C2.67703 13.4828 2.59412 13.3912 2.54966 13.28L1.62113 13.6513ZM1.51392 12.6263C1.51392 12.8398 1.51365 13.0246 1.52398 13.1778C1.53466 13.336 1.55814 13.4938 1.62113 13.6513L2.54966 13.28C2.54118 13.2588 2.52891 13.2171 2.52172 13.1104C2.51418 12.9987 2.51392 12.8532 2.51392 12.6263H1.51392ZM1.51392 11.3738V12.6263H2.51392V11.3738H1.51392ZM1.62119 10.3485C1.55816 10.5061 1.53467 10.664 1.52399 10.8222C1.51365 10.9754 1.51392 11.1603 1.51392 11.3738H2.51392C2.51392 11.1469 2.51418 11.0013 2.52172 10.8895C2.52892 10.7828 2.54119 10.7411 2.54967 10.7199L1.62119 10.3485ZM2.32195 9.57475C2.00325 9.74046 1.75459 10.015 1.62119 10.3485L2.54967 10.7199C2.59414 10.6087 2.67703 10.5172 2.78326 10.462L2.32195 9.57475ZM3.33718 9.36612C3.12278 9.38742 2.93755 9.40555 2.78532 9.43104C2.62836 9.45732 2.47288 9.49628 2.32195 9.57475L2.78326 10.462C2.80319 10.4516 2.84365 10.4352 2.95045 10.4173C3.06198 10.3986 3.20831 10.3838 3.436 10.3612L3.33718 9.36612ZM4.54772 9.17212C4.53352 9.18286 4.47216 9.21944 4.25581 9.25794C4.04492 9.29548 3.75824 9.32431 3.33718 9.36612L3.436 10.3612C3.84051 10.3211 4.17302 10.2884 4.43104 10.2425C4.68359 10.1975 4.94085 10.1287 5.15112 9.96956L4.54772 9.17212ZM4.7411 8.70347C4.76649 8.88321 4.69247 9.06259 4.54772 9.17212L5.15112 9.96956C5.58539 9.64096 5.80744 9.10281 5.73127 8.56359L4.7411 8.70347ZM4.02692 7.72113C4.29357 8.04479 4.47456 8.26504 4.5963 8.43873C4.7209 8.61649 4.73853 8.68527 4.7411 8.70347L5.73127 8.56359C5.69447 8.30306 5.56175 8.07388 5.41518 7.86476C5.26574 7.65156 5.05474 7.39601 4.79873 7.08527L4.02692 7.72113ZM3.46359 6.87312C3.51528 7.03241 3.59677 7.16725 3.68808 7.29441C3.77652 7.41758 3.89278 7.55831 4.02692 7.72113L4.79873 7.08527C4.65618 6.91224 4.56493 6.80108 4.50037 6.71116C4.43868 6.62524 4.42169 6.58581 4.41476 6.56446L3.46359 6.87312ZM3.51678 5.80739C3.36902 6.14411 3.3501 6.52337 3.46359 6.87312L4.41476 6.56446C4.37693 6.44788 4.38324 6.32146 4.43249 6.20922L3.51678 5.80739ZM4.16175 5.01969C4.01206 5.16834 3.88236 5.29679 3.7821 5.41054C3.67858 5.52799 3.58407 5.65404 3.51678 5.80739L4.43249 6.20922C4.44151 6.18867 4.46234 6.15112 4.53228 6.07177C4.60548 5.98873 4.70734 5.88721 4.86641 5.72923L4.16175 5.01969ZM5.06127 4.12636L4.16175 5.01969L4.86641 5.72923L5.76593 4.8359L5.06127 4.12636ZM5.87494 3.47347C5.71634 3.53986 5.586 3.63528 5.46458 3.7404C5.34708 3.84213 5.21455 3.97414 5.06127 4.12636L5.76593 4.8359C5.92887 4.67408 6.0335 4.57056 6.11913 4.49642C6.20083 4.42568 6.23958 4.40491 6.26104 4.39593L5.87494 3.47347ZM6.89279 3.42274C6.55798 3.32035 6.1979 3.33829 5.87494 3.47347L6.26104 4.39593C6.36869 4.35087 6.48872 4.34489 6.60032 4.37902L6.89279 3.42274ZM7.7718 3.99511C7.60263 3.85766 7.45661 3.73866 7.32897 3.64859C7.19729 3.55568 7.05758 3.47314 6.89278 3.42274L6.60032 4.37902C6.62219 4.38571 6.66302 4.40258 6.75244 4.46567C6.84588 4.5316 6.9615 4.6252 7.14118 4.77121L7.7718 3.99511ZM7.7565 3.98316L7.75649 3.98316L7.15649 4.78316L7.1565 4.78316L7.7565 3.98316ZM8.77812 4.71553C8.75984 4.71323 8.68974 4.69627 8.50741 4.57051C8.32946 4.44776 8.10352 4.26466 7.7718 3.99512L7.14119 4.77121C7.45977 5.03007 7.72156 5.24327 7.93962 5.39368C8.15332 5.54108 8.38754 5.67413 8.65275 5.70765L8.77812 4.71553ZM9.23671 4.52485C9.12845 4.66521 8.95397 4.73776 8.77812 4.71553L8.65275 5.70765C9.18032 5.77431 9.70376 5.55667 10.0285 5.1356L9.23671 4.52485ZM9.4344 3.31505C9.39196 3.73647 9.36277 4.02267 9.32455 4.23326C9.28549 4.4485 9.24833 4.5098 9.23671 4.52485L10.0285 5.1356C10.1914 4.9244 10.2623 4.6661 10.3085 4.41183C10.3555 4.15291 10.3886 3.8197 10.4294 3.41524L9.4344 3.31505ZM9.64361 2.30658C9.56521 2.45695 9.52607 2.61151 9.49962 2.76776C9.47401 2.91903 9.45577 3.1028 9.4344 3.31505L10.4294 3.41524C10.4521 3.18963 10.4669 3.045 10.4856 2.93468C10.5034 2.82934 10.5198 2.78911 10.5303 2.76886L9.64361 2.30658ZM10.417 1.60712C10.0839 1.74027 9.80947 1.98843 9.64361 2.30658L10.5303 2.76886C10.5856 2.66281 10.6771 2.58009 10.7881 2.53571L10.417 1.60712ZM11.4414 1.5C11.2281 1.5 11.0434 1.49974 10.8903 1.51006C10.7322 1.52072 10.5745 1.54418 10.417 1.60712L10.7881 2.53571C10.8094 2.52723 10.851 2.51498 10.9576 2.50779C11.0693 2.50026 11.2146 2.5 11.4414 2.5V1.5ZM12.7249 1.5H11.4414V2.5H12.7249V1.5ZM13.7495 1.60718C13.592 1.54421 13.4343 1.52074 13.2761 1.51007C13.123 1.49974 12.9383 1.5 12.7249 1.5V2.5C12.9517 2.5 13.0971 2.50026 13.2088 2.5078C13.3154 2.51499 13.3571 2.52724 13.3783 2.53573L13.7495 1.60718ZM14.5227 2.30644C14.3569 1.9884 14.0826 1.74033 13.7495 1.60718L13.3783 2.53573C13.4893 2.58011 13.5808 2.6628 13.636 2.76881L14.5227 2.30644ZM15.6109 12C15.6109 13.9297 14.0348 15.5 12.0832 15.5V16.5C14.5805 16.5 16.6109 14.4885 16.6109 12H15.6109ZM12.0832 8.5C14.0348 8.5 15.6109 10.0703 15.6109 12H16.6109C16.6109 9.51147 14.5805 7.5 12.0832 7.5V8.5ZM8.55549 12C8.55549 10.0703 10.1316 8.5 12.0832 8.5V7.5C9.58587 7.5 7.55549 9.51147 7.55549 12H8.55549ZM12.0832 15.5C10.1316 15.5 8.55549 13.9297 8.55549 12H7.55549C7.55549 14.4885 9.58587 16.5 12.0832 16.5V15.5Z" fill="#F40008"/>
</svg>
