<svg width="21" height="21" viewBox="0 0 21 21" fill="none" xmlns="http://www.w3.org/2000/svg">
<path d="M10.5 18.375C9.46584 18.375 8.44181 18.1713 7.48637 17.7756C6.53093 17.3798 5.66279 16.7997 4.93153 16.0685C4.20027 15.3372 3.6202 14.4691 3.22445 13.5136C2.82869 12.5582 2.625 11.5342 2.625 10.5C2.625 9.46584 2.82869 8.44181 3.22445 7.48637C3.62021 6.53093 4.20027 5.66279 4.93153 4.93153C5.6628 4.20027 6.53093 3.6202 7.48637 3.22445C8.44181 2.82869 9.46584 2.625 10.5 2.625C11.5342 2.625 12.5582 2.82869 13.5136 3.22445C14.4691 3.62021 15.3372 4.20027 16.0685 4.93154C16.7997 5.6628 17.3798 6.53093 17.7756 7.48637C18.1713 8.44181 18.375 9.46584 18.375 10.5C18.375 11.5342 18.1713 12.5582 17.7756 13.5136C17.3798 14.4691 16.7997 15.3372 16.0685 16.0685C15.3372 16.7997 14.4691 17.3798 13.5136 17.7756C12.5582 18.1713 11.5342 18.375 10.5 18.375L10.5 18.375Z" stroke="#F40008" stroke-linecap="round"/>
<path d="M7.875 7.875L13.125 13.125" stroke="#F40008" stroke-linecap="round"/>
<path d="M13.125 7.875L7.875 13.125" stroke="#F40008" stroke-linecap="round"/>
</svg>
