<svg width="15" height="15" viewBox="0 0 15 15" fill="none" xmlns="http://www.w3.org/2000/svg">
<path d="M2.26877 8.74335C2.7981 6.20149 5.01088 4.3954 7.49997 4.3954C9.98829 4.3954 12.2011 6.20149 12.7312 8.74335C12.7522 8.84422 12.8124 8.93261 12.8985 8.98909C12.9847 9.04556 13.0898 9.06549 13.1906 9.0445C13.2915 9.0235 13.3799 8.9633 13.4364 8.87713C13.4929 8.79096 13.5128 8.68588 13.4918 8.58502C12.8887 5.69389 10.3663 3.61926 7.49997 3.61926C4.63368 3.61926 2.11122 5.69389 1.50815 8.58502C1.48716 8.68588 1.50709 8.79096 1.56356 8.87713C1.62004 8.9633 1.70843 9.0235 1.8093 9.0445C1.91016 9.06549 2.01524 9.04556 2.1014 8.98909C2.18757 8.93261 2.24778 8.84422 2.26877 8.74335ZM7.49221 5.94769C8.21267 5.94769 8.90362 6.23389 9.41306 6.74333C9.92251 7.25278 10.2087 7.94373 10.2087 8.66419C10.2087 9.38465 9.92251 10.0756 9.41306 10.585C8.90362 11.0945 8.21267 11.3807 7.49221 11.3807C6.77175 11.3807 6.0808 11.0945 5.57136 10.585C5.06191 10.0756 4.77571 9.38465 4.77571 8.66419C4.77571 7.94373 5.06191 7.25278 5.57136 6.74333C6.0808 6.23389 6.77175 5.94769 7.49221 5.94769Z" fill="#6A707C"/>
</svg>
