<svg width="25" height="24" viewBox="0 0 25 24" fill="none" xmlns="http://www.w3.org/2000/svg">
<path d="M4.82698 7.13803L5.27248 7.36502L4.82698 7.13803ZM5.29828 18.7382L4.94594 18.3834H4.94594L5.29828 18.7382ZM17.862 16.173L17.635 15.7275L17.862 16.173ZM19.173 14.862L18.7275 14.635L19.173 14.862ZM19.173 7.13803L18.7275 7.36502V7.36502L19.173 7.13803ZM17.862 5.82698L18.089 5.38148V5.38148L17.862 5.82698ZM6.13803 5.82698L6.36502 6.27248L6.13803 5.82698ZM7.25949 16.7905L6.90716 16.4357L7.25949 16.7905ZM5 10.3C5 9.45167 5.00039 8.84549 5.03921 8.37032C5.07756 7.90099 5.15089 7.60366 5.27248 7.36502L4.38148 6.91103C4.17609 7.31413 4.08593 7.75771 4.04253 8.28889C3.99961 8.81423 4 9.46817 4 10.3H5ZM5 16.4844V10.3H4V16.4844H5ZM4.03118 16.5156V18.4189H5.03118V16.5156H4.03118ZM4.03118 18.4189C4.03118 19.2637 5.0512 19.6882 5.65061 19.093L4.94594 18.3834C4.94888 18.3805 4.95945 18.3732 4.97451 18.3706C4.98686 18.3685 4.99545 18.3707 5.00039 18.3727C5.00533 18.3748 5.0129 18.3794 5.0201 18.3896C5.02889 18.4021 5.03118 18.4148 5.03118 18.4189H4.03118ZM5.65061 19.093L7.61182 17.1452L6.90716 16.4357L4.94594 18.3834L5.65061 19.093ZM14.7 16H7.96416V17H14.7V16ZM17.635 15.7275C17.3963 15.8491 17.099 15.9224 16.6297 15.9608C16.1545 15.9996 15.5483 16 14.7 16V17C15.5318 17 16.1858 17.0004 16.7111 16.9575C17.2423 16.9141 17.6859 16.8239 18.089 16.6185L17.635 15.7275ZM18.7275 14.635C18.4878 15.1054 18.1054 15.4878 17.635 15.7275L18.089 16.6185C18.7475 16.283 19.283 15.7475 19.6185 15.089L18.7275 14.635ZM19 11.7C19 12.5483 18.9996 13.1545 18.9608 13.6297C18.9224 14.099 18.8491 14.3963 18.7275 14.635L19.6185 15.089C19.8239 14.6859 19.9141 14.2423 19.9575 13.7111C20.0004 13.1858 20 12.5318 20 11.7H19ZM19 10.3V11.7H20V10.3H19ZM18.7275 7.36502C18.8491 7.60366 18.9224 7.90099 18.9608 8.37032C18.9996 8.84549 19 9.45167 19 10.3H20C20 9.46817 20.0004 8.81423 19.9575 8.28889C19.9141 7.75771 19.8239 7.31413 19.6185 6.91103L18.7275 7.36502ZM17.635 6.27248C18.1054 6.51217 18.4878 6.89462 18.7275 7.36502L19.6185 6.91103C19.283 6.25247 18.7475 5.71703 18.089 5.38148L17.635 6.27248ZM14.7 6C15.5483 6 16.1545 6.00039 16.6297 6.03921C17.099 6.07756 17.3963 6.15089 17.635 6.27248L18.089 5.38148C17.6859 5.17609 17.2423 5.08593 16.7111 5.04253C16.1858 4.99961 15.5318 5 14.7 5V6ZM9.3 6H14.7V5H9.3V6ZM6.36502 6.27248C6.60366 6.15089 6.90099 6.07756 7.37032 6.03921C7.84549 6.00039 8.45167 6 9.3 6V5C8.46817 5 7.81423 4.99961 7.28889 5.04253C6.75771 5.08593 6.31413 5.17609 5.91103 5.38148L6.36502 6.27248ZM5.27248 7.36502C5.51217 6.89462 5.89462 6.51217 6.36502 6.27248L5.91103 5.38148C5.25247 5.71703 4.71703 6.25247 4.38148 6.91103L5.27248 7.36502ZM7.61182 17.1452C7.70549 17.0522 7.83215 17 7.96416 17V16C7.56813 16 7.18816 16.1566 6.90716 16.4357L7.61182 17.1452ZM4.51559 17C4.24806 17 4.03118 16.7831 4.03118 16.5156H5.03118C5.03118 16.2308 4.80034 16 4.51559 16V17ZM4 16.4844C4 16.7692 4.23084 17 4.51559 17V16C4.78312 16 5 16.2169 5 16.4844H4Z" fill="#222222"/>
<path d="M8.55884 9.5L15.6073 9.5" stroke="#222222" stroke-linecap="round" stroke-linejoin="round"/>
<path d="M8.55884 12.5L13.5935 12.5" stroke="#222222" stroke-linecap="round" stroke-linejoin="round"/>
</svg>
