<svg width="48" height="48" viewBox="0 0 48 48" fill="none" xmlns="http://www.w3.org/2000/svg">
<path d="M15.0992 25.9366L24.3343 33.3505C24.7665 33.6976 25.3978 33.6309 25.7481 33.2013L43.1441 11.8651" stroke="white" stroke-width="2" stroke-linecap="round"/>
<path fill-rule="evenodd" clip-rule="evenodd" d="M19.0053 25.7608L29.7293 12.6537C30.0822 12.2224 30.0186 11.5866 29.5873 11.2337C29.156 10.8808 28.5202 10.9444 28.1673 11.3757L17.4548 24.4687L19.0053 25.7608ZM15.8101 29.666L14.2596 28.3739L10.7923 32.6117L3.57179 27.1963C3.12593 26.8619 2.49341 26.9523 2.15902 27.3982C1.82463 27.844 1.91499 28.4765 2.36084 28.8109L9.58139 34.2263C10.4466 34.8752 11.6695 34.7268 12.3544 33.8898L15.8101 29.666Z" fill="white"/>
</svg>
