<svg width="127" height="127" viewBox="0 0 127 127" fill="none" xmlns="http://www.w3.org/2000/svg">
<path d="M51.9495 52.4609L63.7683 33.8326C64.6578 32.4307 64.2423 30.5732 62.8404 29.6837L44.2122 17.8649" stroke="white" stroke-width="2.5" stroke-linejoin="round"/>
<path d="M86.3307 42.501C90.9533 47.5269 93.7883 53.9376 94.3961 60.7389C95.0039 67.5402 93.3505 74.352 89.6924 80.1178C86.0342 85.8837 80.5757 90.2813 74.1634 92.6287C67.7512 94.9761 60.7436 95.1421 54.2274 93.1009C47.7112 91.0597 42.0506 86.9254 38.1236 81.3392C34.1966 75.753 32.2226 69.0271 32.5077 62.2046C32.7929 55.3822 35.3212 48.8444 39.7007 43.6054C44.0802 38.3664 50.066 34.7188 56.7298 33.2285" stroke="white" stroke-width="2.5" stroke-linecap="round"/>
</svg>
