<svg width="37" height="48" viewBox="0 0 37 48" fill="none" xmlns="http://www.w3.org/2000/svg">
<path d="M18.5 23.5907L32.9673 33.478C34.8647 34.7747 35.9994 36.9246 35.9994 39.2227V39.2227C35.9994 43.0656 32.8841 46.1809 29.0413 46.1809H7.95874C4.11587 46.1809 1.00061 43.0656 1.00061 39.2227V39.2227C1.00061 36.9246 2.13534 34.7747 4.03269 33.478L18.5 23.5907ZM18.5 23.5907L32.9673 13.7035C34.8647 12.4068 35.9994 10.2569 35.9994 7.95874V7.95874C35.9994 4.11588 32.8841 1.00061 29.0413 1.00061H7.95875C4.11588 1.00061 1.00061 4.11587 1.00061 7.95874V7.95874C1.00061 10.2569 2.13534 12.4068 4.03268 13.7034L18.5 23.5907Z" stroke="#E3E3E3" stroke-width="2" stroke-linecap="round" stroke-linejoin="round"/>
<path d="M23.8473 36.9039L26.4774 38.6008C27.6532 39.3593 28.3634 40.6628 28.3634 42.062C28.3634 44.3368 26.5193 46.181 24.2444 46.181H12.7558C10.481 46.181 8.63683 44.3368 8.63683 42.062C8.63683 40.6628 9.34709 39.3593 10.5228 38.6008L13.153 36.9039C16.4084 34.8036 20.5919 34.8036 23.8473 36.9039Z" fill="#E3E3E3"/>
</svg>
