<svg width="18" height="18" viewBox="0 0 18 18" fill="none" xmlns="http://www.w3.org/2000/svg">
<path d="M2.25 9C2.25 5.27208 5.27208 2.25 9 2.25C12.7279 2.25 15.75 5.27208 15.75 9C15.75 12.7279 12.7279 15.75 9 15.75C5.27208 15.75 2.25 12.7279 2.25 9Z" fill="#7E869E" fill-opacity="0.25"/>
<circle cx="9" cy="7.5" r="3" fill="#F40008"/>
<path fill-rule="evenodd" clip-rule="evenodd" d="M13.6408 13.6441C13.7001 13.7397 13.6823 13.8633 13.5999 13.94C12.3944 15.063 10.7775 15.75 9.00001 15.75C7.2226 15.75 5.60564 15.063 4.40018 13.9401C4.31783 13.8634 4.3 13.7398 4.35923 13.6441C5.24065 12.22 6.9882 11.25 9.00006 11.25C11.0119 11.25 12.7594 12.22 13.6408 13.6441Z" fill="#222222"/>
</svg>
