<svg width="30" height="40" viewBox="0 0 30 40" fill="none" xmlns="http://www.w3.org/2000/svg">
<path d="M15 20L26.9175 28.5626C28.2249 29.5019 29 31.0133 29 32.6231V34C29 36.7614 26.7614 39 24 39H6C3.23858 39 1 36.7614 1 34V32.6231C1 31.0133 1.77513 29.5019 3.08252 28.5626L15 20ZM15 20L26.9175 11.4374C28.2249 10.4981 29 8.98672 29 7.37686V6C29 3.23858 26.7614 1 24 1H6C3.23858 1 1 3.23858 1 6V7.37686C1 8.98672 1.77513 10.4981 3.08252 11.4374L15 20Z" stroke="white" stroke-width="2" stroke-linecap="round" stroke-linejoin="round"/>
<path d="M23 39V37.5104C23 35.6584 21.9763 33.958 20.3394 33.0915L16.8394 31.2385C15.376 30.4638 13.624 30.4638 12.1606 31.2385L8.66056 33.0915C7.02374 33.958 6 35.6584 6 37.5104V39" stroke="white" stroke-width="2" stroke-linecap="round" stroke-linejoin="round"/>
</svg>
