<svg width="77" height="72" viewBox="0 0 77 72" fill="none" xmlns="http://www.w3.org/2000/svg">
<path d="M45.7789 2.7923L46.7745 2.6866V2.6866L45.7789 2.7923ZM45.3577 1.25806L46.0273 0.513645L46.0273 0.51364L45.3577 1.25806ZM46.7586 12.021L47.7543 11.9153V11.9153L46.7586 12.021ZM49.9723 13.3957L50.5835 14.1888L49.9723 13.3957ZM57.8236 7.34488L57.2124 6.55183V6.55183L57.8236 7.34488ZM60.419 7.47333L61.1055 6.74451V6.74451L60.419 7.47333ZM68.2854 14.883L68.9719 14.1541H68.9719L68.2854 14.883ZM69.2989 16.2211L70.2989 16.171V16.171L69.2989 16.2211ZM68.4242 17.6538L69.1801 18.3104V18.3104L68.4242 17.6538ZM62.3899 24.6008L61.634 23.9442L62.3899 24.6008ZM60.9388 27.1003L60.0093 27.4724V27.4724L60.9388 27.1003ZM63.7139 27.9076L63.8078 26.9108L63.7139 27.9076ZM73.499 28.8293L73.5929 27.8325V27.8325L73.499 28.8293ZM75.0529 29.2376L74.3125 29.9116L74.3125 29.9116L75.0529 29.2376ZM75.0529 42.7624L74.3125 42.0884L74.3125 42.0884L75.0529 42.7624ZM73.499 43.1707L73.4052 42.1739H73.4052L73.499 43.1707ZM63.7153 44.0922V45.0935H63.7623L63.8091 45.0891L63.7153 44.0922ZM63.7152 44.0922V43.091H63.6682L63.6213 43.0954L63.7152 44.0922ZM60.9402 44.8996L61.8697 45.2718V45.2718L60.9402 44.8996ZM62.3913 47.3991L61.6354 48.0556V48.0556L62.3913 47.3991ZM68.4243 54.3447L69.1802 53.6881V53.6881L68.4243 54.3447ZM69.2991 55.7774L70.2991 55.8274V55.8274L69.2991 55.7774ZM68.2856 57.1155L67.5991 56.3867L68.2856 57.1155ZM60.4192 64.5251L61.1057 65.2539L60.4192 64.5251ZM59.1607 65.3817L59.2102 66.3817H59.2102L59.1607 65.3817ZM57.8238 64.6536L57.2126 65.4466L57.8238 64.6536ZM49.9724 58.6027L49.2645 59.3107L49.3101 59.3564L49.3613 59.3958L49.9724 58.6027ZM49.9724 58.6027L50.6804 57.8947L50.6347 57.8491L50.5836 57.8097L49.9724 58.6027ZM47.5496 57.3825L47.9434 58.3031L47.9434 58.3031L47.5496 57.3825ZM46.7588 59.9774L47.7544 60.0831V60.0831L46.7588 59.9774ZM45.7789 69.2077L46.7745 69.3134V69.3134L45.7789 69.2077ZM45.3577 70.7419L44.6882 69.9975L44.6882 69.9975L45.3577 70.7419ZM30.9572 70.7419L31.6268 69.9975L31.6268 69.9975L30.9572 70.7419ZM30.5361 69.2077L31.5317 69.102L30.5361 69.2077ZM29.5563 59.9788L28.5607 60.0845L29.5563 59.9788ZM28.7655 57.3839L28.3717 58.3045L28.3717 58.3045L28.7655 57.3839ZM26.3427 58.6041L26.9538 59.3972H26.9538L26.3427 58.6041ZM18.491 64.6551L17.8799 63.8621L17.8798 63.8621L18.491 64.6551ZM17.1541 65.3833L17.1046 66.3833H17.1046L17.1541 65.3833ZM15.8957 64.5267L15.2092 65.2555H15.2092L15.8957 64.5267ZM8.02926 57.1171L7.34275 57.8459H7.34276L8.02926 57.1171ZM7.01576 55.7789L8.01574 55.7289H8.01574L7.01576 55.7789ZM7.89047 54.3463L8.64636 55.0029L8.66991 54.9757L8.69145 54.947L7.89047 54.3463ZM7.89048 54.3463L7.13459 53.6897L7.11104 53.7168L7.0895 53.7455L7.89048 54.3463ZM13.9249 47.3992L14.6807 48.0557L14.6807 48.0557L13.9249 47.3992ZM12.6009 44.0924L12.507 45.0892H12.507L12.6009 44.0924ZM2.81591 43.1707L2.90981 42.1739H2.90981L2.81591 43.1707ZM1.26204 42.7624L2.00247 42.0884L2.00247 42.0884L1.26204 42.7624ZM2.81591 28.8293L2.72202 27.8325L2.72202 27.8325L2.81591 28.8293ZM12.6023 27.9075L12.5084 26.9107L12.6023 27.9075ZM13.9263 24.6007L14.6821 23.9441H14.6821L13.9263 24.6007ZM7.89065 17.6522L8.64654 16.9956L8.64654 16.9956L7.89065 17.6522ZM7.01592 16.2195L8.01591 16.2696V16.2696L7.01592 16.2195ZM8.02943 14.8814L7.34292 14.1526L8.02943 14.8814ZM15.8958 7.47174L15.2093 6.74292L15.2093 6.74292L15.8958 7.47174ZM17.1543 6.61518L17.1048 5.61517L17.1543 6.61518ZM18.4912 7.34329L19.1024 6.55024L18.4912 7.34329ZM26.3428 13.3943L26.954 12.6013L26.3428 13.3943ZM28.7656 14.6145L28.3718 13.694V13.694L28.7656 14.6145ZM29.5565 12.0197L30.5521 12.1254L30.5577 12.0727V12.0197H29.5565ZM29.5565 12.0196L28.5608 11.9139L28.5552 11.9666V12.0196H29.5565ZM30.5361 2.7923L31.5317 2.898V2.898L30.5361 2.7923ZM46.7745 2.6866C46.7321 2.28731 46.6921 1.89247 46.6155 1.57038C46.5323 1.22052 46.3794 0.830384 46.0273 0.513645L44.6882 2.00247C44.6215 1.94255 44.6341 1.89372 44.6674 2.03388C44.7074 2.2018 44.7352 2.44567 44.7832 2.898L46.7745 2.6866ZM47.7543 11.9153L46.7745 2.6866L44.7832 2.898L45.763 12.1267L47.7543 11.9153ZM47.9433 13.6954C48.1092 13.7663 48.0685 13.9002 47.9837 13.5723C47.8974 13.2385 47.8415 12.737 47.7543 11.9153L45.763 12.1267C45.8431 12.881 45.9126 13.5615 46.045 14.0734C46.1788 14.5912 46.4499 15.2345 47.1557 15.5364L47.9433 13.6954ZM49.3611 12.6027C48.7066 13.1071 48.3053 13.413 48.0043 13.5811C47.7086 13.7463 47.7773 13.6244 47.9433 13.6954L47.1557 15.5364C47.8615 15.8384 48.514 15.5901 48.9808 15.3293C49.4425 15.0714 49.9827 14.6518 50.5835 14.1888L49.3611 12.6027ZM57.2124 6.55183L49.3611 12.6027L50.5835 14.1888L58.4348 8.13793L57.2124 6.55183ZM59.21 5.61676C58.7567 5.59432 58.3863 5.74904 58.0881 5.92453C57.8141 6.08581 57.5148 6.3188 57.2124 6.55183L58.4348 8.13793C58.7781 7.87339 58.963 7.73321 59.1039 7.65026C59.2207 7.58153 59.1959 7.62098 59.111 7.61678L59.21 5.61676ZM61.1055 6.74451C60.8276 6.48277 60.5528 6.22135 60.296 6.03381C60.0167 5.82973 59.6634 5.6392 59.21 5.61676L59.111 7.61678C59.0262 7.61258 59.0054 7.57088 59.1148 7.6508C59.2469 7.74726 59.417 7.90501 59.7325 8.20215L61.1055 6.74451ZM68.9719 14.1541L61.1055 6.74451L59.7325 8.20215L67.5989 15.6118L68.9719 14.1541ZM70.2989 16.171C70.2739 15.673 70.047 15.2945 69.8091 15.0025C69.5895 14.733 69.2829 14.447 68.9719 14.1541L67.5989 15.6118C67.9502 15.9427 68.1403 16.1245 68.2568 16.2675C68.355 16.3881 68.3037 16.3667 68.2989 16.2712L70.2989 16.171ZM69.1801 18.3104C69.4602 17.9878 69.7367 17.6727 69.9283 17.3826C70.1358 17.0683 70.3238 16.669 70.2989 16.171L68.2989 16.2712C68.2941 16.1756 68.3431 16.1492 68.2573 16.279C68.1557 16.4329 67.9847 16.6329 67.6683 16.9972L69.1801 18.3104ZM63.1458 25.2574L69.1801 18.3104L67.6683 16.9972L61.634 23.9442L63.1458 25.2574ZM61.8683 26.7281C61.9415 26.9109 61.799 26.9793 62.003 26.6603C62.2051 26.3444 62.564 25.9271 63.1458 25.2574L61.634 23.9442C61.0969 24.5625 60.6167 25.1113 60.3161 25.5813C60.0175 26.0482 59.7089 26.7223 60.0093 27.4724L61.8683 26.7281ZM63.8078 26.9108C62.9245 26.8276 62.3768 26.7733 62.0126 26.6842C61.6448 26.5941 61.7951 26.5453 61.8683 26.7281L60.0093 27.4724C60.3096 28.2226 60.9981 28.4974 61.5364 28.6292C62.0783 28.7619 62.8046 28.8276 63.62 28.9044L63.8078 26.9108ZM73.5929 27.8325L63.8078 26.9108L63.62 28.9044L73.4052 29.8261L73.5929 27.8325ZM75.7934 28.5637C75.4715 28.2101 75.0761 28.0599 74.7223 27.9799C74.3965 27.9062 73.9972 27.8706 73.5929 27.8325L73.4052 29.8261C73.8629 29.8692 74.1102 29.8945 74.2806 29.933C74.4231 29.9653 74.3735 29.9786 74.3125 29.9116L75.7934 28.5637ZM76.315 30.823C76.315 30.4169 76.3169 30.016 76.2741 29.6847C76.2276 29.325 76.1152 28.9172 75.7934 28.5637L74.3125 29.9116C74.2515 29.8446 74.2694 29.7965 74.2882 29.9414C74.3105 30.1146 74.3125 30.3632 74.3125 30.823H76.315ZM76.315 41.177V30.823H74.3125V41.177H76.315ZM75.7934 43.4363C76.1152 43.0828 76.2276 42.675 76.2741 42.3153C76.3169 41.984 76.315 41.5831 76.315 41.177H74.3125C74.3125 41.6368 74.3105 41.8854 74.2882 42.0586C74.2694 42.2035 74.2515 42.1554 74.3125 42.0884L75.7934 43.4363ZM73.5929 44.1675C73.9972 44.1294 74.3965 44.0938 74.7223 44.0201C75.0761 43.9401 75.4715 43.7899 75.7934 43.4363L74.3125 42.0884C74.3735 42.0213 74.4231 42.0347 74.2806 42.0669C74.1102 42.1055 73.8629 42.1307 73.4052 42.1739L73.5929 44.1675ZM63.8091 45.0891L73.5929 44.1675L73.4052 42.1739L63.6214 43.0954L63.8091 45.0891ZM63.7152 45.0935H63.7153V43.091H63.7152V45.0935ZM61.8697 45.2718C61.7965 45.4546 61.6462 45.4057 62.014 45.3157C62.3782 45.2265 62.9259 45.1723 63.8091 45.0891L63.6213 43.0954C62.8059 43.1722 62.0797 43.238 61.5378 43.3707C60.9995 43.5024 60.311 43.7773 60.0107 44.5274L61.8697 45.2718ZM63.1471 46.7425C62.5654 46.0727 62.2065 45.6555 62.0044 45.3396C61.8004 45.0206 61.9429 45.089 61.8697 45.2718L60.0107 44.5274C59.7103 45.2776 60.0189 45.9517 60.3175 46.4185C60.6181 46.8885 61.0983 47.4373 61.6354 48.0556L63.1471 46.7425ZM69.1802 53.6881L63.1471 46.7425L61.6354 48.0556L67.6685 55.0012L69.1802 53.6881ZM70.2991 55.8274C70.324 55.3295 70.136 54.9301 69.9285 54.6159C69.7369 54.3258 69.4604 54.0106 69.1802 53.6881L67.6685 55.0012C67.9849 55.3656 68.1559 55.5655 68.2575 55.7194C68.3432 55.8492 68.2943 55.8228 68.2991 55.7273L70.2991 55.8274ZM68.9721 57.8443C69.283 57.5514 69.5896 57.2654 69.8093 56.9959C70.0472 56.704 70.2741 56.3254 70.2991 55.8274L68.2991 55.7273C68.3039 55.6317 68.3552 55.6104 68.257 55.7309C68.1404 55.8739 67.9503 56.0558 67.5991 56.3867L68.9721 57.8443ZM61.1057 65.2539L68.9721 57.8443L67.5991 56.3867L59.7327 63.7963L61.1057 65.2539ZM59.2102 66.3817C59.6636 66.3592 60.0168 66.1687 60.2962 65.9646C60.5529 65.7771 60.8278 65.5157 61.1057 65.2539L59.7327 63.7963C59.4172 64.0934 59.2471 64.2512 59.115 64.3476C59.0056 64.4276 59.0263 64.3859 59.1112 64.3817L59.2102 66.3817ZM57.2126 65.4466C57.515 65.6796 57.8143 65.9126 58.0883 66.0739C58.3865 66.2494 58.7568 66.4041 59.2102 66.3817L59.1112 64.3817C59.1961 64.3775 59.2208 64.4169 59.1041 64.3482C58.9631 64.2652 58.7782 64.1251 58.435 63.8605L57.2126 65.4466ZM49.3613 59.3958L57.2126 65.4466L58.435 63.8605L50.5836 57.8097L49.3613 59.3958ZM49.2644 59.3107L49.2645 59.3107L50.6804 57.8947L50.6804 57.8947L49.2644 59.3107ZM47.9434 58.3031C47.7775 58.3741 47.7087 58.2522 48.0045 58.4174C48.3055 58.5855 48.7067 58.8913 49.3612 59.3958L50.5836 57.8097C49.9828 57.3467 49.4426 56.927 48.981 56.6691C48.5141 56.4084 47.8617 56.1601 47.1558 56.462L47.9434 58.3031ZM47.7544 60.0831C47.8417 59.2614 47.8976 58.7599 47.9839 58.4262C48.0687 58.0982 48.1094 58.2321 47.9434 58.3031L47.1559 56.462C46.45 56.7639 46.179 57.4073 46.0451 57.925C45.9128 58.437 45.8432 59.1175 45.7632 59.8717L47.7544 60.0831ZM46.7745 69.3134L47.7544 60.0831L45.7632 59.8717L44.7832 69.102L46.7745 69.3134ZM46.0273 71.4863C46.3794 71.1696 46.5323 70.7795 46.6155 70.4296C46.6921 70.1075 46.7321 69.7127 46.7745 69.3134L44.7832 69.102C44.7352 69.5543 44.7074 69.7982 44.6674 69.9661C44.6341 70.1063 44.6215 70.0574 44.6882 69.9975L46.0273 71.4863ZM43.7876 72C44.1891 72 44.586 72.0019 44.9144 71.9597C45.2711 71.9139 45.6752 71.8031 46.0273 71.4863L44.6882 69.9975C44.7548 69.9376 44.802 69.9552 44.6591 69.9736C44.4879 69.9956 44.2425 69.9975 43.7876 69.9975V72ZM32.5274 72H43.7876V69.9975H32.5274V72ZM30.2877 71.4863C30.6398 71.8031 31.0439 71.9139 31.4006 71.9597C31.729 72.0019 32.1258 72 32.5274 72V69.9975C32.0725 69.9975 31.827 69.9956 31.6558 69.9736C31.513 69.9552 31.5602 69.9376 31.6268 69.9975L30.2877 71.4863ZM29.5404 69.3134C29.5828 69.7127 29.6228 70.1075 29.6994 70.4296C29.7827 70.7795 29.9355 71.1696 30.2877 71.4863L31.6268 69.9975C31.6934 70.0574 31.6809 70.1063 31.6475 69.9661C31.6076 69.7982 31.5797 69.5543 31.5317 69.102L29.5404 69.3134ZM28.5607 60.0845L29.5404 69.3134L31.5317 69.102L30.5519 59.8731L28.5607 60.0845ZM28.3717 58.3045C28.2057 58.2335 28.2464 58.0996 28.3312 58.4276C28.4175 58.7613 28.4734 59.2628 28.5607 60.0845L30.5519 59.8731C30.4719 59.1189 30.4023 58.4383 30.27 57.9264C30.1361 57.4086 29.8651 56.7653 29.1592 56.4634L28.3717 58.3045ZM26.9538 59.3972C27.6084 58.8927 28.0096 58.5869 28.3106 58.4187C28.6064 58.2535 28.5376 58.3755 28.3717 58.3045L29.1592 56.4634C28.4534 56.1614 27.801 56.4097 27.3341 56.6705C26.8724 56.9284 26.3323 57.3481 25.7315 57.8111L26.9538 59.3972ZM19.1022 65.4482L26.9538 59.3972L25.7315 57.8111L17.8799 63.8621L19.1022 65.4482ZM17.1046 66.3833C17.558 66.4057 17.9284 66.251 18.2265 66.0755C18.5005 65.9142 18.7999 65.6812 19.1022 65.4482L17.8798 63.8621C17.5366 64.1266 17.3517 64.2668 17.2108 64.3498C17.094 64.4185 17.1187 64.3791 17.2036 64.3833L17.1046 66.3833ZM15.2092 65.2555C15.487 65.5173 15.7619 65.7787 16.0186 65.9662C16.298 66.1703 16.6513 66.3608 17.1046 66.3833L17.2036 64.3833C17.2885 64.3875 17.3092 64.4292 17.1998 64.3492C17.0678 64.2528 16.8976 64.095 16.5822 63.7979L15.2092 65.2555ZM7.34276 57.8459L15.2092 65.2555L16.5822 63.7979L8.71576 56.3882L7.34276 57.8459ZM6.01577 55.829C6.04072 56.327 6.26766 56.7056 6.50558 56.9975C6.7252 57.267 7.0318 57.553 7.34275 57.8459L8.71576 56.3882C8.36449 56.0574 8.17441 55.8755 8.05788 55.7325C7.95964 55.6119 8.01095 55.6333 8.01574 55.7289L6.01577 55.829ZM7.13457 53.6897C6.85445 54.0122 6.57796 54.3274 6.38637 54.6175C6.17882 54.9317 5.99083 55.3311 6.01577 55.829L8.01574 55.7289C8.02052 55.8244 7.9716 55.8508 8.0573 55.721C8.15896 55.5671 8.32991 55.3672 8.64636 55.0029L7.13457 53.6897ZM7.0895 53.7455L7.08948 53.7455L8.69145 54.947L8.69147 54.947L7.0895 53.7455ZM13.169 46.7426L7.13459 53.6897L8.64637 55.0028L14.6807 48.0557L13.169 46.7426ZM14.4465 45.2719C14.3733 45.0891 14.5157 45.0207 14.3117 45.3397C14.1097 45.6556 13.7507 46.0728 13.169 46.7426L14.6807 48.0557C15.2178 47.4374 15.698 46.8886 15.9986 46.4186C16.2972 45.9518 16.6058 45.2777 16.3055 44.5276L14.4465 45.2719ZM12.507 45.0892C13.3902 45.1724 13.9379 45.2266 14.3021 45.3158C14.6699 45.4058 14.5196 45.4547 14.4465 45.2719L16.3055 44.5276C16.0051 43.7774 15.3166 43.5025 14.7783 43.3708C14.2364 43.2381 13.5102 43.1723 12.6948 43.0955L12.507 45.0892ZM2.72202 44.1675L12.507 45.0892L12.6948 43.0955L2.90981 42.1739L2.72202 44.1675ZM0.521601 43.4363C0.843432 43.7899 1.23888 43.9401 1.59264 44.0201C1.91847 44.0938 2.31774 44.1294 2.72202 44.1675L2.90981 42.1739C2.45204 42.1307 2.20477 42.1055 2.03438 42.0669C1.89191 42.0347 1.94144 42.0213 2.00247 42.0884L0.521601 43.4363ZM0 41.177C0 41.5831 -0.00195589 41.984 0.0408564 42.3153C0.0873374 42.675 0.199773 43.0828 0.521606 43.4363L2.00247 42.0884C2.0635 42.1554 2.04553 42.2035 2.02681 42.0586C2.00442 41.8854 2.00247 41.6368 2.00247 41.177H0ZM0 30.823V41.177H2.00247V30.823H0ZM0.521604 28.5637C0.199773 28.9172 0.0873374 29.325 0.0408564 29.6847C-0.00195589 30.016 0 30.4169 0 30.823H2.00247C2.00247 30.3632 2.00442 30.1146 2.02681 29.9414C2.04553 29.7965 2.0635 29.8445 2.00247 29.9116L0.521604 28.5637ZM2.72202 27.8325C2.31773 27.8706 1.91847 27.9062 1.59264 27.9799C1.23888 28.0599 0.843434 28.2101 0.521604 28.5637L2.00247 29.9116C1.94144 29.9786 1.89191 29.9653 2.03438 29.933C2.20477 29.8945 2.45204 29.8692 2.90981 29.8261L2.72202 27.8325ZM12.5084 26.9107L2.72202 27.8325L2.90981 29.8261L12.6962 28.9043L12.5084 26.9107ZM14.4478 26.728C14.521 26.5452 14.6713 26.594 14.3035 26.6841C13.9393 26.7732 13.3916 26.8275 12.5084 26.9107L12.6962 28.9043C13.5115 28.8275 14.2378 28.7618 14.7797 28.6291C15.318 28.4973 16.0065 28.2225 16.3068 27.4723L14.4478 26.728ZM13.1704 25.2573C13.7521 25.927 14.111 26.3443 14.3131 26.6602C14.5171 26.9792 14.3747 26.9108 14.4478 26.728L16.3068 27.4723C16.6072 26.7221 16.2986 26.0481 16 25.5812C15.6994 25.1112 15.2192 24.5624 14.6821 23.9441L13.1704 25.2573ZM7.13476 18.3088L13.1704 25.2573L14.6821 23.9441L8.64654 16.9956L7.13476 18.3088ZM6.01594 16.1694C5.991 16.6674 6.17899 17.0667 6.38654 17.381C6.57814 17.6711 6.85463 17.9863 7.13476 18.3088L8.64654 16.9956C8.33009 16.6313 8.15913 16.4313 8.05748 16.2774C7.97177 16.1477 8.02069 16.1741 8.01591 16.2696L6.01594 16.1694ZM7.34292 14.1526C7.03197 14.4455 6.72537 14.7314 6.50574 15.0009C6.26783 15.2929 6.04088 15.6714 6.01594 16.1694L8.01591 16.2696C8.01112 16.3651 7.95981 16.3865 8.05805 16.2659C8.17458 16.1229 8.36465 15.9411 8.71593 15.6102L7.34292 14.1526ZM15.2093 6.74292L7.34292 14.1526L8.71593 15.6102L16.5823 8.20057L15.2093 6.74292ZM17.1048 5.61517C16.6515 5.63761 16.2982 5.82815 16.0188 6.03222C15.7621 6.21977 15.4872 6.48118 15.2093 6.74292L16.5823 8.20057C16.8978 7.90342 17.0679 7.74567 17.2 7.64922C17.3094 7.56929 17.2887 7.61099 17.2038 7.61519L17.1048 5.61517ZM19.1024 6.55024C18.8 6.31722 18.5007 6.08422 18.2267 5.92295C17.9285 5.74746 17.5582 5.59273 17.1048 5.61517L17.2038 7.61519C17.1189 7.61939 17.0942 7.57994 17.2109 7.64867C17.3519 7.73162 17.5368 7.8718 17.88 8.13634L19.1024 6.55024ZM26.954 12.6013L19.1024 6.55024L17.88 8.13634L25.7316 14.1874L26.954 12.6013ZM28.3718 13.694C28.5378 13.623 28.6065 13.7449 28.3108 13.5797C28.0098 13.4116 27.6085 13.1057 26.954 12.6013L25.7316 14.1874C26.3324 14.6504 26.8726 15.0701 27.3343 15.3279C27.8011 15.5887 28.4536 15.837 29.1594 15.5351L28.3718 13.694ZM28.5608 11.914C28.4736 12.7357 28.4177 13.2371 28.3314 13.5709C28.2466 13.8989 28.2059 13.765 28.3718 13.694L29.1594 15.5351C29.8652 15.2331 30.1363 14.5898 30.2701 14.0721C30.4025 13.5601 30.472 12.8796 30.5521 12.1254L28.5608 11.914ZM28.5552 12.0196V12.0197H30.5577V12.0196H28.5552ZM29.5404 2.6866L28.5608 11.9139L30.5521 12.1253L31.5317 2.898L29.5404 2.6866ZM30.2877 0.513643C29.9355 0.830381 29.7827 1.22052 29.6994 1.57038C29.6228 1.89248 29.5828 2.28731 29.5404 2.6866L31.5317 2.898C31.5797 2.44567 31.6076 2.2018 31.6475 2.03388C31.6809 1.89373 31.6934 1.94255 31.6268 2.00247L30.2877 0.513643ZM32.5274 0C32.1258 0 31.729 -0.00193357 31.4006 0.0402702C31.0439 0.0861111 30.6398 0.196903 30.2877 0.513643L31.6268 2.00247C31.5602 2.06239 31.5129 2.04477 31.6558 2.0264C31.827 2.0044 32.0725 2.00247 32.5274 2.00247V0ZM43.7876 0H32.5274V2.00247H43.7876V0ZM46.0273 0.51364C45.6751 0.196903 45.2711 0.0861111 44.9144 0.0402701C44.586 -0.00193357 44.1891 0 43.7876 0V2.00247C44.2425 2.00247 44.4879 2.0044 44.6591 2.0264C44.802 2.04477 44.7548 2.06239 44.6882 2.00247L46.0273 0.51364ZM52.0187 36C52.0187 43.1232 45.8701 48.9983 38.1575 48.9983V51.0007C46.8615 51.0007 54.0212 44.3403 54.0212 36H52.0187ZM38.1575 23.0017C45.8701 23.0017 52.0187 28.8768 52.0187 36H54.0212C54.0212 27.6597 46.8615 20.9993 38.1575 20.9993V23.0017ZM24.2962 36C24.2962 28.8768 30.4448 23.0017 38.1575 23.0017V20.9993C29.4535 20.9993 22.2937 27.6597 22.2937 36H24.2962ZM38.1575 48.9983C30.4448 48.9983 24.2962 43.1232 24.2962 36H22.2937C22.2937 44.3403 29.4535 51.0007 38.1575 51.0007V48.9983Z" fill="white"/>
</svg>
