<svg width="66" height="66" viewBox="0 0 66 66" fill="none" xmlns="http://www.w3.org/2000/svg">
<path d="M26.9974 27.2631L32.3477 18.8302C33.2472 17.4124 32.827 15.5339 31.4093 14.6344L22.9764 9.28411" stroke="white" stroke-width="2.5" stroke-linejoin="round"/>
<path d="M44.8648 22.0872C47.2671 24.699 48.7404 28.0305 49.0563 31.5651C49.3721 35.0996 48.5129 38.6396 46.6118 41.636C44.7107 44.6325 41.874 46.9179 38.5417 48.1378C35.2093 49.3577 31.5675 49.4439 28.1812 48.3831C24.7948 47.3223 21.8531 45.1738 19.8123 42.2707C17.7715 39.3677 16.7456 35.8723 16.8938 32.3268C17.042 28.7813 18.3559 25.3837 20.6319 22.6611C22.9078 19.9384 26.0186 18.0428 29.4816 17.2683" stroke="white" stroke-width="2.5" stroke-linecap="round"/>
</svg>
