<svg width="25" height="24" viewBox="0 0 25 24" fill="none" xmlns="http://www.w3.org/2000/svg">
<path d="M5.03467 12.7597C5.03467 11.4019 5.03467 10.723 5.31103 10.1263C5.58739 9.52956 6.10641 9.08775 7.14444 8.20413L8.15137 7.34699C10.0276 5.74986 10.9657 4.95129 12.0832 4.95129C13.2006 4.95129 14.1387 5.74986 16.015 7.34699L17.0219 8.20413C18.0599 9.08775 18.5789 9.52956 18.8553 10.1263C19.1317 10.723 19.1317 11.4019 19.1317 12.7597V17.0001C19.1317 18.8857 19.1317 19.8285 18.5418 20.4143C17.952 21.0001 17.0026 21.0001 15.104 21.0001H9.06238C7.1637 21.0001 6.21436 21.0001 5.62451 20.4143C5.03467 19.8285 5.03467 18.8857 5.03467 17.0001V12.7597Z" stroke="#3A3A3A"/>
<path d="M14.6004 21V16C14.6004 15.4477 14.1527 15 13.6004 15H10.5658C10.0135 15 9.5658 15.4477 9.5658 16V21" stroke="#3A3A3A" stroke-linecap="round" stroke-linejoin="round"/>
</svg>
