<svg width="106" height="102" viewBox="0 0 106 102" fill="none" xmlns="http://www.w3.org/2000/svg">
<rect width="106" height="102" rx="51" fill="#F40008"/>
<path d="M53.1761 47.5L73.9899 61.7247C76.7196 63.5902 78.3521 66.6832 78.3521 69.9895V69.9895C78.3521 75.5181 73.8702 80 68.3416 80H38.0105C32.4819 80 28 75.5181 28 69.9895V69.9895C28 66.6832 29.6325 63.5902 32.3622 61.7247L53.1761 47.5ZM53.1761 47.5L73.9899 33.2753C76.7196 31.4098 78.3521 28.3168 78.3521 25.0105V25.0105C78.3521 19.4819 73.8702 15 68.3416 15H38.0105C32.4819 15 28 19.4819 28 25.0105V25.0105C28 28.3168 29.6325 31.4098 32.3622 33.2753L53.1761 47.5Z" stroke="white" stroke-width="2" stroke-linecap="round" stroke-linejoin="round"/>
<path d="M59.1395 65.5375L64.6529 69.0945C66.3444 70.1858 67.3662 72.0611 67.3662 74.0741C67.3662 77.3469 64.7131 80 61.4403 80H44.9119C41.6391 80 38.986 77.3469 38.986 74.0741C38.986 72.0611 40.0078 70.1858 41.6993 69.0945L47.2127 65.5375C50.8433 63.1952 55.5089 63.1952 59.1395 65.5375Z" fill="white"/>
</svg>
